<svg xmlns="http://www.w3.org/2000/svg" width="480" height="480" viewBox="0 0 480 480">
  <g id="diving-goggles" transform="translate(-16 -16)">
    <path id="Path_1" data-name="Path 1" d="M493.072,17.813a8.008,8.008,0,0,0-6.641-1.658l-40,8A8,8,0,0,0,440,32V144h16V126.559l24-4.8V216H464v-7.377a72.917,72.917,0,0,0-35.29-62.536,107.393,107.393,0,0,0-79.3-45.977C317.836,97.383,286.408,96,256,96s-61.836,1.383-93.408,4.11a107.393,107.393,0,0,0-79.3,45.977A72.917,72.917,0,0,0,48,208.623V216H40a24.028,24.028,0,0,0-24,24v32a24.028,24.028,0,0,0,24,24h8.455a72.125,72.125,0,0,0,64.354,63.64l29.433,44.146a32.977,32.977,0,0,0,38.6,12.747C198.119,410.359,230.856,400,256,400s57.881,10.359,75.155,16.533a32.962,32.962,0,0,0,38.6-12.745L399.19,359.64A72.125,72.125,0,0,0,463.545,296H480v72A112.127,112.127,0,0,1,368,480H344V456h24a88.1,88.1,0,0,0,88-88V352H440v16a72.081,72.081,0,0,1-72,72H307.7A32.012,32.012,0,0,0,280,424H224a32.012,32.012,0,0,0-27.7,16H180a28,28,0,0,0,0,56H368A128.145,128.145,0,0,0,496,368V24a8,8,0,0,0-2.928-6.187ZM328,456v24H312V456ZM224,440h56a16.019,16.019,0,0,1,16,16v24H208V456a16.019,16.019,0,0,1,16-16Zm-56,28a12.013,12.013,0,0,1,12-12h12v24H180a12.013,12.013,0,0,1-12-12ZM480,33.758V73.441l-24,4.8V38.559Zm-24,76.483V94.559l24-4.8v15.682ZM163.969,116.05C195.085,113.363,226.049,112,256,112s60.915,1.363,92.031,4.05a91.416,91.416,0,0,1,49.581,19.859A1320.931,1320.931,0,0,0,256,128a1320.923,1320.923,0,0,0-141.612,7.909A91.416,91.416,0,0,1,163.969,116.05ZM32,272V240a8.009,8.009,0,0,1,8-8h8v48H40a8.009,8.009,0,0,1-8-8ZM356.441,394.915a16.985,16.985,0,0,1-19.9,6.552C314.247,393.5,282.177,384,256,384s-58.247,9.5-80.544,17.467a16.984,16.984,0,0,1-19.9-6.555L132.279,360h2.237a55.693,55.693,0,0,0,52.147-35.591c7.8-19.9,19.946-48.457,33.5-71.452C234.006,229.47,247.068,216,256,216s21.994,13.47,35.837,36.957c13.554,23,25.7,51.548,33.5,71.451A55.692,55.692,0,0,0,377.484,360h2.237ZM448,288a56.063,56.063,0,0,1-56,56H377.484a39.786,39.786,0,0,1-37.251-25.43c-8.013-20.445-20.523-49.835-34.612-73.737C287.84,214.665,271.608,200,256,200s-31.84,14.665-49.621,44.833c-14.089,23.9-26.6,53.292-34.612,73.737A39.786,39.786,0,0,1,134.516,344H120a56.063,56.063,0,0,1-56-56V208.623a56.907,56.907,0,0,1,50.628-56.644A1305.15,1305.15,0,0,1,256,144a1305.167,1305.167,0,0,1,141.372,7.979A56.907,56.907,0,0,1,448,208.623Zm16-8V232h16v48Z" fill="#ad1d45"/>
    <path id="Path_2" data-name="Path 2" d="M116.4,167.881A40.922,40.922,0,0,0,80,208.623V256H96V208.623a24.939,24.939,0,0,1,22.168-24.84c26.058-2.9,66.987-6.562,114-7.534l-.33-16C184.228,161.236,142.783,164.944,116.4,167.881Z" fill="#ad1d45"/>
    <rect id="Rectangle_1" data-name="Rectangle 1" width="16" height="16" transform="translate(80 272)" fill="#ad1d45"/>
    <path id="Path_3" data-name="Path 3" d="M287.761,294.06l-15.522,3.88,11.031,44.12a8,8,0,0,1-7.762,9.94H236.492a8,8,0,0,1-7.762-9.94l11.031-44.12-15.522-3.88-11.03,44.119A24,24,0,0,0,236.492,368h39.016a24,24,0,0,0,23.283-29.821Z" fill="#ad1d45"/>
  </g>
</svg>
