<svg xmlns="http://www.w3.org/2000/svg" width="479.058" height="359.294" viewBox="0 0 479.058 359.294">
  <path id="envelope" d="M434.146,59.882H44.912A44.961,44.961,0,0,0,0,104.794v269.47a44.961,44.961,0,0,0,44.912,44.912H434.146a44.961,44.961,0,0,0,44.912-44.912V104.794a44.961,44.961,0,0,0-44.912-44.912Zm0,29.941a14.884,14.884,0,0,1,5.738,1.159L239.529,264.631,39.173,90.982a14.9,14.9,0,0,1,5.738-1.159Zm0,299.411H44.912a14.981,14.981,0,0,1-14.971-14.971V122.615L229.719,295.756a14.992,14.992,0,0,0,19.62,0L449.117,122.615V374.264A14.981,14.981,0,0,1,434.146,389.234Z" transform="translate(0 -59.882)" fill="#fff"/>
</svg>
