<svg xmlns="http://www.w3.org/2000/svg" width="450.111" height="512" viewBox="0 0 450.111 512">
  <g id="swimming" transform="translate(-30.944)">
    <g id="Group_2" data-name="Group 2">
      <g id="Group_1" data-name="Group 1">
        <path id="Path_1" data-name="Path 1" d="M465.877,270.765l-18.96,11.118a25.292,25.292,0,0,1-25.845-.142l-17.72-10.653a55.311,55.311,0,0,0-56.518-.312l-18.94,11.107a25.294,25.294,0,0,1-25.845-.142l-17.72-10.653a55.526,55.526,0,0,0-5.488-2.889V62.146a32.148,32.148,0,0,1,64.3,0V96.06h30V62.146a62.146,62.146,0,0,0-124.293,0v119.3h-126.1V62.146a32.147,32.147,0,0,1,64.294,0V96.06h30V62.146a62.146,62.146,0,0,0-124.293,0V280.183l-2.895,1.7a25.294,25.294,0,0,1-25.845-.142l-17.6-10.583L30.946,296.867l17.6,10.584a55.274,55.274,0,0,0,56.479.31l18.94-11.107a25.331,25.331,0,0,1,25.884.143l17.72,10.653a55.27,55.27,0,0,0,56.478.311l18.939-11.107a25.331,25.331,0,0,1,25.884.143l17.72,10.653a55.28,55.28,0,0,0,56.48.311l18.94-11.107a25.334,25.334,0,0,1,25.883.143l17.721,10.654a55.275,55.275,0,0,0,56.478.31l18.96-11.118Zm-217.033-7.156a55.311,55.311,0,0,0-21.03,7.168l-18.94,11.107a25.294,25.294,0,0,1-25.845-.142l-17.72-10.653a55.312,55.312,0,0,0-42.563-6.105V211.448h126.1Z" fill="#7ac1ea"/>
      </g>
    </g>
    <g id="Group_4" data-name="Group 4">
      <g id="Group_3" data-name="Group 3">
        <path id="Path_2" data-name="Path 2" d="M465.878,370.9l-18.96,11.119a25.294,25.294,0,0,1-25.845-.142l-17.721-10.655a55.318,55.318,0,0,0-56.517-.31l-18.94,11.106a25.293,25.293,0,0,1-25.844-.142l-17.722-10.654a55.307,55.307,0,0,0-56.516-.311l-18.94,11.106a25.288,25.288,0,0,1-25.844-.142l-17.721-10.655a55.313,55.313,0,0,0-56.517-.31l-18.94,11.106a25.3,25.3,0,0,1-25.844-.141L46.4,371.286l-15.46,25.709L48.55,407.58a55.277,55.277,0,0,0,56.478.31l18.94-11.107a25.327,25.327,0,0,1,25.883.143l17.721,10.655a55.277,55.277,0,0,0,56.478.31l18.94-11.107a25.318,25.318,0,0,1,25.882.142l17.722,10.655a55.278,55.278,0,0,0,56.479.309l18.941-11.107a25.325,25.325,0,0,1,25.882.143l17.722,10.655a55.275,55.275,0,0,0,56.477.31l18.96-11.118Z" fill="#7ac1ea"/>
      </g>
    </g>
    <g id="Group_6" data-name="Group 6">
      <g id="Group_5" data-name="Group 5">
        <path id="Path_3" data-name="Path 3" d="M465.875,467.4l-18.957,11.12a25.292,25.292,0,0,1-25.845-.143l-17.721-10.654a55.32,55.32,0,0,0-56.517-.31l-18.94,11.107a25.3,25.3,0,0,1-25.845-.143l-17.721-10.653a55.309,55.309,0,0,0-56.516-.311l-18.94,11.107a25.292,25.292,0,0,1-25.845-.143l-17.72-10.654a55.316,55.316,0,0,0-56.517-.31l-18.94,11.107a25.294,25.294,0,0,1-25.845-.143L46.4,467.79,30.946,493.5l17.6,10.584a55.275,55.275,0,0,0,56.478.311l18.94-11.107a25.334,25.334,0,0,1,25.883.142l17.72,10.653a55.268,55.268,0,0,0,56.478.311l18.94-11.107a25.325,25.325,0,0,1,25.883.142l17.72,10.653a55.274,55.274,0,0,0,56.48.311l18.941-11.107a25.332,25.332,0,0,1,25.882.142l17.721,10.654a55.272,55.272,0,0,0,56.478.311l18.96-11.118Z" fill="#7ac1ea"/>
      </g>
    </g>
  </g>
</svg>
