<svg xmlns="http://www.w3.org/2000/svg" width="512" height="392.599" viewBox="0 0 512 392.599">
  <g id="swimmer" transform="translate(0 -59.7)">
    <path id="Path_1" data-name="Path 1" d="M19.1,365.835c194.577-55.312,265.7,56.463,481.68.085a15,15,0,1,0-7.577-29.027c-42.4,11.069-79.157,15.166-112.44,15.21l-43.487-70.09a67.255,67.255,0,0,0,119.7-44.122c-1.846-60.194-75.6-87.2-116.214-44.014a67.244,67.244,0,0,0-12.1,74.259l-59.5-95.9,88.3-25.481a44.382,44.382,0,0,0-24.609-85.284L199.178,100.044a54.394,54.394,0,0,0-31.151,80.971l40.406,65.123c-29.127,18.08-121.51,75.368-122.491,76.048A443.98,443.98,0,0,0,10.9,336.978a15,15,0,0,0,8.2,28.857Zm343.519-151.4a37.255,37.255,0,1,1,1.616,52.662A37.247,37.247,0,0,1,362.624,214.431ZM241.831,243.069,193.518,165.2a24.407,24.407,0,0,1,13.976-36.331L341.177,90.292a14.381,14.381,0,1,1,7.975,27.635L241.821,148.9a15.006,15.006,0,0,0-8.587,22.32L344.52,350.582c-69.987-5.875-126.854-26.983-198.86-30.189l91.334-56.671a15,15,0,0,0,4.837-20.653Z" fill="#15498b"/>
    <path id="Path_2" data-name="Path 2" d="M493.208,406.893c-206.643,53.942-279.154-57.666-482.306.085a15,15,0,1,0,8.2,28.857c194.577-55.312,265.7,56.463,481.68.085a15,15,0,1,0-7.577-29.027Z" fill="#15498b"/>
  </g>
</svg>
